<svg xmlns="http://www.w3.org/2000/svg" viewBox="0 0 100 120" fill="none">
  <circle cx="50" cy="54" r="46" fill="#002147" stroke="#C0A860" stroke-width="2.5"/>
  <!-- Wheat stalks -->
  <path d="M22 80 Q18 60 20 40" stroke="#C0A860" stroke-width="1.5" fill="none"/>
  <ellipse cx="18" cy="56" rx="6" ry="3" fill="#C0A860" transform="rotate(-30 18 56)"/>
  <ellipse cx="17" cy="48" rx="6" ry="3" fill="#C0A860" transform="rotate(-35 17 48)"/>
  <path d="M78 80 Q82 60 80 40" stroke="#C0A860" stroke-width="1.5" fill="none"/>
  <ellipse cx="82" cy="56" rx="6" ry="3" fill="#C0A860" transform="rotate(30 82 56)"/>
  <ellipse cx="83" cy="48" rx="6" ry="3" fill="#C0A860" transform="rotate(35 83 48)"/>
  <!-- Shield emblem center -->
  <path d="M35 38 L50 34 L65 38 L65 60 Q65 74 50 78 Q35 74 35 60 Z" fill="none" stroke="#FFFFFF" stroke-width="1.5"/>
  <text x="50" y="62" font-family="Inter,sans-serif" font-size="16" font-weight="700" fill="#FFFFFF" text-anchor="middle">BSF</text>
  <text x="50" y="94" font-family="Inter,sans-serif" font-size="6.5" font-weight="600" fill="rgba(255,255,255,0.65)" text-anchor="middle">GOVERNMENT OF INDIA</text>
</svg>
