<svg xmlns="http://www.w3.org/2000/svg" viewBox="0 0 96 64">
  <rect width="96" height="64" fill="#FF9933"/>
  <rect y="21.3" width="96" height="21.3" fill="#FFFFFF"/>
  <rect y="42.6" width="96" height="21.4" fill="#138808"/>
  <!-- Ashoka Chakra -->
  <circle cx="48" cy="32" r="8" fill="none" stroke="#000080" stroke-width="1.2"/>
  <circle cx="48" cy="32" r="1.5" fill="#000080"/>
  <!-- 24 spokes -->
  <g stroke="#000080" stroke-width="0.6">
    <line x1="48" y1="24" x2="48" y2="26"/><line x1="50" y1="24.3" x2="49.5" y2="26.2"/>
    <line x1="51.8" y1="25.4" x2="50.8" y2="26.9"/><line x1="53.1" y1="27.1" x2="51.6" y2="28.1"/>
    <line x1="53.7" y1="29.3" x2="51.8" y2="29.6"/><line x1="53.3" y1="31.5" x2="51.4" y2="31.2"/>
    <line x1="52.2" y1="33.4" x2="50.6" y2="32.6"/><line x1="50.5" y1="35" x2="49.3" y2="33.7"/>
    <line x1="48.5" y1="35.9" x2="48.3" y2="33.9"/><line x1="46.3" y1="35.8" x2="46.7" y2="33.8"/>
    <line x1="44.3" y1="34.8" x2="45.2" y2="33.1"/><line x1="42.8" y1="33.1" x2="44.3" y2="32"/>
    <line x1="42.2" y1="30.9" x2="44.2" y2="30.7"/><line x1="42.6" y1="28.7" x2="44.4" y2="29.2"/>
    <line x1="43.7" y1="26.8" x2="45.2" y2="27.9"/><line x1="45.3" y1="25.3" x2="46.5" y2="26.7"/>
    <line x1="48" y1="40" x2="48" y2="38"/><line x1="50" y1="39.7" x2="49.5" y2="37.8"/>
  </g>
</svg>
